<svg xmlns="http://www.w3.org/2000/svg" fill="none" viewBox="0 0 100 100"><path fill="#3DDB85" d="M73.013 64.093a4.17 4.17 0 0 1-4.164-4.166 4.17 4.17 0 0 1 4.164-4.163 4.17 4.17 0 0 1 4.164 4.163 4.17 4.17 0 0 1-4.164 4.166m-46.026 0a4.17 4.17 0 0 1-4.163-4.166 4.17 4.17 0 0 1 4.163-4.163 4.17 4.17 0 0 1 4.164 4.163 4.17 4.17 0 0 1-4.164 4.166m47.52-25.083 8.321-14.414a1.733 1.733 0 0 0-1.947-2.537 1.73 1.73 0 0 0-1.052.806L71.404 37.46C64.96 34.52 57.723 32.88 50 32.88s-14.96 1.639-21.403 4.58l-8.426-14.596a1.733 1.733 0 0 0-3.172.418c-.119.443-.057.915.173 1.313l8.322 14.414C11.204 46.782 1.43 61.249 0 78.34h100c-1.431-17.09-11.205-31.559-25.494-39.33"/></svg>
