<svg xmlns="http://www.w3.org/2000/svg" fill="none" viewBox="0 0 100 100"><path fill="url(#a)" d="M80.281 9.303c-2.432 2.832-3.569 9.215-1.099 15.677 2.466 6.467 6.25 5.063 8.608 11.656 3.113 8.698 1.662 20.387 1.662 20.387s3.743 10.835 6.35-.676c5.766-21.613-15.52-41.718-15.52-47.044"/><path fill="url(#b)" d="M50.584 99.056c24.922 0 45.11-20.302 45.11-45.33 0-25.026-20.188-45.329-45.086-45.329S5.522 28.695 5.522 53.727c-.047 25.055 20.164 45.329 45.062 45.329"/><path fill="url(#c)" d="M84.386 81.675a25 25 0 0 1-3.062 1.845 71 71 0 0 0 3.893-6.4c.962-1.067 1.84-2.1 2.559-3.218a31 31 0 0 0 1.16-2.015c2.531-4.564 5.325-11.947 5.405-19.532v-.019c0-.187.005-.375 0-.558a26 26 0 0 0-.582-5.664l.056.436c-.023-.112-.042-.225-.066-.338.038.207.066.409.099.606.516 4.391.15 8.679-1.695 11.835-.029.047-.062.09-.09.136.958-4.8 1.278-10.102.212-15.409 0 0-.428-2.578-3.597-10.412-1.822-4.508-5.063-8.204-7.927-10.895-2.508-3.104-4.79-5.19-6.044-6.51-2.625-2.76-3.724-4.832-4.174-6.184-.39-.198-5.4-5.063-5.8-5.246-2.188 3.39-9.063 13.99-5.79 23.9 1.484 4.49 5.231 9.148 9.152 11.764.174.197 2.334 2.546 3.363 7.843 1.06 5.471.502 9.74-1.681 16.057-2.57 5.542-9.153 11.018-15.319 11.576-13.176 1.198-18.004-6.617-18.004-6.617 4.71 1.883 9.913 1.489 13.083-.465 3.193-1.972 5.123-3.437 6.687-2.86 1.545.573 2.775-1.094 1.672-2.822a7.98 7.98 0 0 0-8.068-3.513c-3.193.521-6.119 3.048-10.308.601a7 7 0 0 1-.784-.517c-.277-.183.897.277.625.07-.812-.44-2.254-1.408-2.63-1.75-.06-.057.634.22.568.163-3.911-3.221-3.423-5.4-3.3-6.767.098-1.094.807-2.494 2.004-3.062.578.315.94.559.94.559s-.25-.503-.38-.77c.046-.02.088-.015.135-.033.475.23 1.522.822 2.076 1.183.718.507.948.958.948.958s.188-.103.047-.544c-.051-.184-.267-.757-.981-1.339l.042.005q.643.365 1.207.836c.202-.728.564-1.494.484-2.856-.047-.958-.028-1.207-.197-1.578-.15-.32.084-.441.347-.112a3.5 3.5 0 0 0-.225-.752v-.023c.328-1.142 6.936-4.114 7.415-4.462a6.9 6.9 0 0 0 1.944-2.113c.366-.587.643-1.41.709-2.654.037-.897-.38-1.498-7.063-2.198-1.827-.178-2.897-1.502-3.508-2.724-.112-.262-.225-.502-.338-.742a5.4 5.4 0 0 1-.258-.854c1.094-3.137 2.925-5.79 5.625-7.796.146-.136-.587.033-.44-.099.173-.155 1.29-.606 1.502-.709.258-.122-1.104-.7-2.31-.559-1.226.136-1.49.287-2.142.564.272-.273 1.136-.625.935-.625-1.325.202-2.964.972-4.372 1.841-.005-.15.028-.3.084-.441-.653.277-2.263 1.4-2.728 2.352q.028-.274.028-.549a9 9 0 0 0-1.343 1.404l-.023.024c-3.795-1.531-7.138-1.63-9.965-.944-.62-.62-.92-.17-2.33-3.26-.093-.187.076.184 0 0-.23-.6.141.799 0 0-2.366 1.87-5.48 3.983-6.973 5.476-.019.062 1.742-.497 0 0-.61.174-.568.536-.662 3.814-.024.249-.005.526-.024.751-1.192 1.522-2.005 2.809-2.315 3.476-1.545 2.662-3.245 6.81-4.893 13.37a34 34 0 0 1 2.62-5.124c-1.37 3.485-2.695 8.952-2.958 17.372a50 50 0 0 1 1.273-5.147 48.1 48.1 0 0 0 3.531 20.434c.949 2.32 2.517 5.838 5.184 9.698 8.387 8.825 20.216 14.32 33.318 14.32 13.693 0 25.978-5.984 34.416-15.49"/><path fill="url(#d)" d="M74.266 88.085c16.553-1.916 23.879-18.973 14.468-19.311-8.5-.268-22.31 20.218-14.468 19.311"/><path fill="url(#e)" d="M89.927 65.294c11.388-6.627 8.42-20.946 8.42-20.946s-4.396 5.105-7.382 13.244c-2.95 8.059-7.885 11.703-1.038 7.702"/><path fill="url(#f)" d="M53.773 96.557c15.877 5.067 29.523-7.443 21.113-11.619-7.65-3.766-28.646 9.224-21.113 11.62"/><path fill="url(#g)" d="M91.11 71.37c.385-.544.906-2.291 1.371-3.07 2.804-4.528 2.823-8.135 2.823-8.214 1.695-8.459 1.54-11.91.497-18.298-.84-5.142-4.503-12.51-7.677-16.056-3.274-3.654-.968-2.466-4.138-5.134-2.775-3.08-5.47-6.128-6.936-7.354C66.453 4.382 66.692 2.499 66.894 2.179l-.15.17c-.127-.503-.216-.921-.216-.921s-5.795 5.795-7.011 15.446c-.798 6.303 1.564 12.873 4.977 17.076a39 39 0 0 0 5.997 5.894v-.005c2.583 3.706 4.001 8.28 4.001 13.202 0 12.323-9.993 22.312-22.32 22.312-1.68 0-3.352-.187-4.991-.558-5.819-1.109-9.176-4.044-10.853-6.035-.958-1.142-1.366-1.973-1.366-1.973 5.212 1.87 10.974 1.475 14.477-.46 3.532-1.958 5.668-3.41 7.401-2.837 1.71.569 3.071-1.084 1.85-2.799-1.197-1.714-4.31-4.165-8.931-3.484-3.536.516-6.777 3.024-11.407.591a9 9 0 0 1-.868-.512c-.306-.178.99.273.69.07-.902-.436-2.498-1.394-2.912-1.732-.07-.056.7.22.63.164-4.33-3.198-3.79-5.354-3.654-6.71.108-1.086.897-2.471 2.221-3.035.639.315 1.038.554 1.038.554s-.272-.497-.422-.765c.051-.019.103-.014.15-.033a28 28 0 0 1 2.296 1.174c.794.503 1.047.954 1.047.954s.212-.104.057-.54c-.057-.179-.296-.752-1.085-1.33l.047.005q.706.36 1.334.831c.22-.723.62-1.479.535-2.832-.052-.948-.028-1.197-.216-1.563-.17-.315.094-.437.385-.113a3 3 0 0 0-.249-.747l.005-.023c.361-1.132 7.677-4.077 8.208-4.424a7.15 7.15 0 0 0 2.15-2.095c.41-.582.715-1.395.79-2.63.023-.559-.146-.995-2.085-1.418-1.165-.254-2.963-.498-5.734-.761-2.024-.178-3.207-1.493-3.884-2.705a13 13 0 0 0-.375-.733 5.5 5.5 0 0 1-.287-.85 16.1 16.1 0 0 1 6.237-7.735c.164-.131-.653.033-.489-.098.188-.155 1.428-.602 1.663-.705.286-.122-1.226-.695-2.555-.554-1.357.136-1.644.282-2.371.559.3-.268 1.258-.62 1.033-.615-1.465.202-3.283.962-4.837 1.826a.94.94 0 0 1 .094-.436c-.723.277-2.503 1.39-3.02 2.334q.035-.27.029-.545a9.3 9.3 0 0 0-1.485 1.39l-.028.024c-4.202-1.517-7.898-1.616-11.03-.935-.686-.615-1.785-1.55-3.344-4.612-.108-.183-.164.38-.244.197-.606-1.404-.972-3.705-.911-5.288 0 0-1.254.569-2.287 2.954a16 16 0 0 1-.437.902c-.056.07.127-.784.099-.737-.179.305-.648.732-.85 1.282-.141.409-.338.639-.465 1.146l-.028.047c-.01-.15.037-.62.005-.521a24 24 0 0 0-1.25 3.033c-.558 1.837-1.206 4.33-1.31 7.58-.023.244-.004.522-.023.742-1.32 1.508-2.221 2.785-2.56 3.447-1.714 2.63-3.597 6.744-5.423 13.249a32.6 32.6 0 0 1 2.902-5.081C3.76 42.3 2.296 47.725 2 56.079c.366-1.728.84-3.433 1.409-5.105-.263 5.57.385 12.474 3.907 20.265 2.09 4.584 6.903 13.887 18.662 21.148 11.758 7.26 4 2.978 10.875 5.208a59 59 0 0 0 1.55.54q-.24-.1-.48-.206A49.2 49.2 0 0 0 52.032 100c17.802.014 23.052-7.134 23.052-7.134l-.052.038a15 15 0 0 0 .728-.738c-2.808 2.654-9.218 2.828-11.618 2.64 4.086-1.203 6.777-2.217 12.008-4.222.61-.226 1.24-.484 1.878-.775.07-.028.141-.066.207-.094.127-.061.253-.113.38-.179a35.5 35.5 0 0 0 7.143-4.47c5.254-4.2 6.396-8.29 6.997-10.985-.085.258-.343.86-.526 1.254-1.353 2.893-4.353 4.672-7.612 6.194a70 70 0 0 0 4.306-6.345c1.061-1.052 1.395-2.705 2.188-3.813"/><path fill="url(#h)" d="M84.714 81.407c2.142-2.362 4.067-5.063 5.523-8.13 3.752-7.885 9.547-20.997 4.982-34.687-3.611-10.82-8.565-16.738-14.853-22.519C70.147 6.683 67.292 2.494 67.292 0c0 0-11.796 13.155-6.682 26.868s15.595 13.216 22.527 27.53c8.156 16.846-6.603 35.228-18.808 40.375.747-.165 27.129-6.138 28.519-21.228-.028.277-.625 4.448-8.134 7.862"/><path fill="url(#i)" d="M50.532 32.457c.043-.893-.422-1.49-7.79-2.18-3.034-.281-4.194-3.08-4.546-4.264-1.08 2.804-1.521 5.74-1.282 9.299.165 2.33 1.728 4.828 2.475 6.298 0 0 .164-.216.244-.296 1.409-1.465 7.312-3.7 7.866-4.02.606-.385 2.935-2.085 3.033-4.837"/><path fill="url(#j)" d="M18.088 15.902c-.108-.183-.164.38-.244.197-.606-1.404-.972-3.677-.888-5.288 0 0-1.253.568-2.286 2.954-.193.427-.315.667-.437.902-.056.07.127-.784.098-.738-.178.306-.648.733-.85 1.26-.168.431-.338.661-.47 1.197-.037.145.039-.644.006-.545-2.41 4.659-2.87 11.699-2.616 11.403 5.128-5.476 11.007-6.777 11.007-6.777-.62-.465-1.981-1.794-3.32-4.565"/><path fill="url(#k)" d="M37.553 73.188c-7.086-3.024-15.14-7.293-14.84-16.987.414-12.764 11.905-10.242 11.905-10.242-.432.103-1.592.93-2.005 1.813-.432 1.098-1.226 3.583 1.174 6.19 3.77 4.085-7.744 9.692 10.026 20.283.45.24-4.161-.15-6.26-1.057"/><path fill="url(#l)" d="M35.036 66.824c5.024 1.747 10.876 1.442 14.384-.493 2.347-1.306 5.353-3.4 7.208-2.883-1.602-.634-2.818-.93-4.278-1-.249 0-.545-.005-.817-.034q-.804 0-1.602.09c-.906.084-1.906.652-2.817.563-.047-.005.883-.385.808-.366-.484.099-1.01.122-1.564.192-.352.038-.658.085-1.005.099-10.467.888-19.31-5.673-19.31-5.673-.756 2.531 3.367 7.547 8.993 9.505"/><path fill="url(#m)" d="M84.696 81.473c10.584-10.393 15.942-23.027 13.674-37.2 0 0 .906 7.265-2.526 14.7 1.648-7.256 1.84-16.274-2.536-25.61-5.842-12.464-15.45-19.02-19.122-21.758-5.555-4.147-7.861-8.365-7.903-9.238-1.663 3.4-6.683 15.061-.54 25.102 5.757 9.407 14.825 12.201 21.17 20.829 11.697 15.901-2.217 33.175-2.217 33.175"/><path fill="url(#n)" d="M83.179 54.431c-3.7-7.641-8.317-10.975-12.684-14.592.507.71.634.963.915 1.423 3.847 4.096 9.514 14.094 5.396 26.638-7.748 23.618-38.732 12.497-41.981 9.374 1.314 13.667 24.188 20.209 39.084 11.347 8.476-8.027 15.332-21.665 9.27-34.19"/><defs><radialGradient id="a" cx="0" cy="0" r="1" gradientTransform="matrix(34.91406 1.55796 -2.29019 51.32333 94.309 25.006)" gradientUnits="userSpaceOnUse"><stop offset=".045" stop-color="#FFEA00"/><stop offset=".12" stop-color="#FFDE00"/><stop offset=".254" stop-color="#FFBF00"/><stop offset=".429" stop-color="#FF8E00"/><stop offset=".769" stop-color="#FF272D"/><stop offset=".872" stop-color="#E0255A"/><stop offset=".953" stop-color="#CC2477"/><stop offset="1" stop-color="#C42482"/></radialGradient><radialGradient id="b" cx="0" cy="0" r="1" gradientTransform="matrix(98.5004 0 0 98.5095 69.39 19.627)" gradientUnits="userSpaceOnUse"><stop stop-color="#00CCDA"/><stop offset=".22" stop-color="#0083FF"/><stop offset=".261" stop-color="#007AF9"/><stop offset=".33" stop-color="#0060E8"/><stop offset=".333" stop-color="#005FE7"/><stop offset=".438" stop-color="#2639AD"/><stop offset=".522" stop-color="#401E84"/><stop offset=".566" stop-color="#4A1475"/></radialGradient><radialGradient id="d" cx="0" cy="0" r="1" gradientTransform="rotate(5.67 -477.003 875.15)scale(33.224 33.2271)" gradientUnits="userSpaceOnUse"><stop offset=".003" stop-color="#FFEA00"/><stop offset=".497" stop-color="#FF272D"/><stop offset="1" stop-color="#C42482"/></radialGradient><radialGradient id="e" cx="0" cy="0" r="1" gradientTransform="matrix(55.21075 5.48157 -5.48202 55.21523 84.287 19.41)" gradientUnits="userSpaceOnUse"><stop offset=".003" stop-color="#FFE900"/><stop offset=".157" stop-color="#FFAF0E"/><stop offset=".316" stop-color="#FF7A1B"/><stop offset=".472" stop-color="#FF4E26"/><stop offset=".621" stop-color="#FF2C2E"/><stop offset=".762" stop-color="#FF1434"/><stop offset=".892" stop-color="#FF0538"/><stop offset="1" stop-color="#FF0039"/></radialGradient><radialGradient id="f" cx="0" cy="0" r="1" gradientTransform="matrix(50.6614 5.03006 -5.03046 50.66538 87.018 71.369)" gradientUnits="userSpaceOnUse"><stop offset=".003" stop-color="#FF272D"/><stop offset=".497" stop-color="#C42482"/><stop offset=".986" stop-color="#620700"/></radialGradient><radialGradient id="g" cx="0" cy="0" r="1" gradientTransform="matrix(79.4889 0 0 79.4963 74.681 40.046)" gradientUnits="userSpaceOnUse"><stop offset=".156" stop-color="#FFEA00"/><stop offset=".231" stop-color="#FFDE00"/><stop offset=".365" stop-color="#FFBF00"/><stop offset=".541" stop-color="#FF8E00"/><stop offset=".763" stop-color="#FF272D"/><stop offset=".796" stop-color="#F92433"/><stop offset=".841" stop-color="#E91C45"/><stop offset=".893" stop-color="#CF0E62"/><stop offset=".935" stop-color="#B5007F"/></radialGradient><radialGradient id="h" cx="0" cy="0" r="1" gradientTransform="matrix(93.8623 0 0 93.8709 68.7 .13)" gradientUnits="userSpaceOnUse"><stop offset=".279" stop-color="#FFEA00"/><stop offset=".402" stop-color="#FD0"/><stop offset=".63" stop-color="#FFBA00"/><stop offset=".856" stop-color="#FF9100"/><stop offset=".933" stop-color="#FF6711"/><stop offset=".994" stop-color="#FF4A1D"/></radialGradient><linearGradient id="c" x1="56.943" x2="37.485" y1="74.109" y2="10.464" gradientUnits="userSpaceOnUse"><stop stop-color="#000F43" stop-opacity=".4"/><stop offset=".485" stop-color="#001962" stop-opacity=".173"/><stop offset="1" stop-color="#002079" stop-opacity="0"/></linearGradient><linearGradient id="i" x1="3.863" x2="39.98" y1="39.133" y2="33.651" gradientUnits="userSpaceOnUse"><stop stop-color="#C42482" stop-opacity=".5"/><stop offset=".474" stop-color="#FF272D" stop-opacity=".5"/><stop offset=".486" stop-color="#FF2C2C" stop-opacity=".513"/><stop offset=".675" stop-color="#FF7A1A" stop-opacity=".72"/><stop offset=".829" stop-color="#FFB20D" stop-opacity=".871"/><stop offset=".942" stop-color="#FFD605" stop-opacity=".964"/><stop offset="1" stop-color="#FFE302"/></linearGradient><linearGradient id="j" x1="16.555" x2="12.455" y1="26.204" y2="11.508" gradientUnits="userSpaceOnUse"><stop stop-color="#891551" stop-opacity=".6"/><stop offset="1" stop-color="#C42482" stop-opacity="0"/></linearGradient><linearGradient id="k" x1="24.41" x2="32.842" y1="47.674" y2="59.438" gradientUnits="userSpaceOnUse"><stop offset=".005" stop-color="#891551" stop-opacity=".5"/><stop offset=".484" stop-color="#FF272D" stop-opacity=".5"/><stop offset="1" stop-color="#FF272D" stop-opacity="0"/></linearGradient><linearGradient id="l" x1="40.514" x2="41.28" y1="68.298" y2="60.737" gradientUnits="userSpaceOnUse"><stop stop-color="#C42482"/><stop offset=".083" stop-color="#C42482" stop-opacity=".81"/><stop offset=".206" stop-color="#C42482" stop-opacity=".565"/><stop offset=".328" stop-color="#C42482" stop-opacity=".362"/><stop offset=".447" stop-color="#C42482" stop-opacity=".204"/><stop offset=".562" stop-color="#C42482" stop-opacity=".091"/><stop offset=".673" stop-color="#C42482" stop-opacity=".023"/><stop offset=".773" stop-color="#C42482" stop-opacity="0"/></linearGradient><linearGradient id="m" x1="65.061" x2="96.128" y1="3.669" y2="73.133" gradientUnits="userSpaceOnUse"><stop stop-color="#FFF14F"/><stop offset=".268" stop-color="#FFEE4C"/><stop offset=".452" stop-color="#FFE643"/><stop offset=".612" stop-color="#FFD834"/><stop offset=".757" stop-color="#FFC41E"/><stop offset=".892" stop-color="#FFAB02"/><stop offset=".902" stop-color="#FFA900"/><stop offset=".949" stop-color="#FFA000"/><stop offset="1" stop-color="#FF9100"/></linearGradient><linearGradient id="n" x1="71.195" x2="56.478" y1="43.62" y2="83.13" gradientUnits="userSpaceOnUse"><stop stop-color="#FF8E00"/><stop offset=".04" stop-color="#FF8E00" stop-opacity=".858"/><stop offset=".084" stop-color="#FF8E00" stop-opacity=".729"/><stop offset=".13" stop-color="#FF8E00" stop-opacity=".628"/><stop offset=".178" stop-color="#FF8E00" stop-opacity=".557"/><stop offset=".227" stop-color="#FF8E00" stop-opacity=".514"/><stop offset=".282" stop-color="#FF8E00" stop-opacity=".5"/><stop offset=".389" stop-color="#FF8E00" stop-opacity=".478"/><stop offset=".524" stop-color="#FF8E00" stop-opacity=".416"/><stop offset=".676" stop-color="#FF8E00" stop-opacity=".314"/><stop offset=".838" stop-color="#FF8E00" stop-opacity=".172"/><stop offset="1" stop-color="#FF8E00" stop-opacity="0"/></linearGradient></defs></svg>
